<svg xmlns="http://www.w3.org/2000/svg" viewBox="0 0 347.26 230.68"><defs><style>.cls-1{fill:#78f6ff;}.cls-2{fill:#fff;}.cls-3{fill:#ff208e;}</style></defs><g id="Layer_2" data-name="Layer 2"><g id="Layer_1-2" data-name="Layer 1"><path d="M34.26,177,18.53,155.32a1,1,0,0,0-1.81.58v20.55a1,1,0,0,1-1,1H1a1,1,0,0,1-1-1v-76a1,1,0,0,1,1-1H15.72a1,1,0,0,1,1,1V142.9a1,1,0,0,0,1.83.56l14.6-21.31a1,1,0,0,1,.82-.44H51a1,1,0,0,1,.81,1.59L33.1,149a1,1,0,0,0,0,1.18l19.21,25.69a1,1,0,0,1-.81,1.59H35.07A1,1,0,0,1,34.26,177Z"/><path d="M93.09,121.62v16.8a1,1,0,0,1-1.09,1c-6.8-.67-15.64,2.38-15.64,12.85v24.19a1,1,0,0,1-1,1H60.64a1,1,0,0,1-1-1V122.71a1,1,0,0,1,1-1H75.36a1,1,0,0,1,1,1v4.5a1,1,0,0,0,1.83.55c3.06-4.54,8.52-6.87,13.87-7.14A1,1,0,0,1,93.09,121.62Z"/><path d="M127.53,164.08a14.84,14.84,0,0,0,10.2-3.73,1,1,0,0,1,1.19-.12L150.63,167a1,1,0,0,1,.3,1.47c-5.46,7-13.46,10.57-23.62,10.57-19.06,0-30.88-12.82-30.88-29.43s12-29.43,29.65-29.43c16.28,0,28.32,12.6,28.32,29.43a32.83,32.83,0,0,1-.51,5.88,1,1,0,0,1-1,.81H115.69a1,1,0,0,0-.91,1.45C117.18,162.41,121.94,164.08,127.53,164.08Zm8.87-20.29a1,1,0,0,0,.94-1.37C135.26,137,130.62,135,126,135c-5.83,0-9.87,2.62-11.71,7.44a1,1,0,0,0,.94,1.37Z"/><path d="M184.38,137.77a1,1,0,0,0-1,1V157.5c0,4.56,3.74,5.18,10.43,4.85a1,1,0,0,1,1.06,1v13.19a1,1,0,0,1-.92,1c-21.11,2-27.29-4.65-27.29-20V138.77a1,1,0,0,0-1-1h-6.92a1,1,0,0,1-1-1V122.71a1,1,0,0,1,1-1h6.92a1,1,0,0,0,1-1v-8.84a1,1,0,0,1,.71-1l14.73-4.42a1,1,0,0,1,1.28,1v13.26a1,1,0,0,0,1,1h9.49a1,1,0,0,1,1,1v14.06a1,1,0,0,1-1,1Z"/><path d="M231.54,164.08a14.84,14.84,0,0,0,10.2-3.73,1,1,0,0,1,1.19-.12L254.64,167a1,1,0,0,1,.3,1.47c-5.46,7-13.46,10.57-23.62,10.57-19.06,0-30.88-12.82-30.88-29.43s12-29.43,29.65-29.43c16.28,0,28.32,12.6,28.32,29.43a32.83,32.83,0,0,1-.51,5.88,1,1,0,0,1-1,.81H219.7a1,1,0,0,0-.91,1.45C221.19,162.41,226,164.08,231.54,164.08Zm8.87-20.29a1,1,0,0,0,.94-1.37C239.27,137,234.63,135,230,135c-5.82,0-9.87,2.62-11.71,7.44a1,1,0,0,0,.95,1.37ZM235,114.47H221.11a1,1,0,0,1-.86-1.5L228,99.36a1,1,0,0,1,.87-.5h17.36a1,1,0,0,1,.77,1.64l-11.27,13.61A1,1,0,0,1,235,114.47Z"/><path d="M319.39,143.23v33.22a1,1,0,0,1-1,1H303.67a1,1,0,0,1-1-1V145.68c0-6.91-4.35-10.14-9.7-10.14-6.13,0-10.37,3.56-10.37,11.48v29.43a1,1,0,0,1-1,1H266.88a1,1,0,0,1-1-1V122.71a1,1,0,0,1,1-1H281.6a1,1,0,0,1,1,1v1.62a1,1,0,0,0,1.69.71c3.2-3,8.1-4.89,14.25-4.89C309.8,120.15,319.39,128.18,319.39,143.23Z"/><path d="M329.92,113.91c-8.35-10.26,4.18-22.79,14.44-14.44l.17.18c8.34,10.26-4.17,22.77-14.43,14.44Zm-.06,7.8h14.73a1,1,0,0,1,1,1v53.74a1,1,0,0,1-1,1H329.86a1,1,0,0,1-1-1V122.71A1,1,0,0,1,329.86,121.71Z"/><path d="M112.75,219.38a11.34,11.34,0,1,1,11.34,11.3A11.21,11.21,0,0,1,112.75,219.38Zm16.26,0a4.92,4.92,0,1,0-4.92,5.05A4.8,4.8,0,0,0,129,219.38Z"/><path d="M160,217v12.13a1,1,0,0,1-1,1h-4.42a1,1,0,0,1-1-1V217.89a3.53,3.53,0,0,0-3.72-3.9c-2.36,0-4,1.37-4,4.41v10.68a1,1,0,0,1-1,1h-4.42a1,1,0,0,1-1-1V209.69a1,1,0,0,1,1-1h4.42a1,1,0,0,1,1,1v1c1.15-1.58,3.29-2.61,6.12-2.61C156.35,208.09,160,211.17,160,217Z"/><path d="M165.86,198.85h4.42a1,1,0,0,1,1,1v29.23a1,1,0,0,1-1,1h-4.42a1,1,0,0,1-1-1V199.85A1,1,0,0,1,165.86,198.85Z"/><path d="M176.75,205.61a3.91,3.91,0,0,1,5.53-5.52l.2.2a3.91,3.91,0,0,1-5.53,5.52A1.26,1.26,0,0,1,176.75,205.61Zm.66,3.08h4.42a1,1,0,0,1,1,1v19.39a1,1,0,0,1-1,1h-4.42a1,1,0,0,1-1-1V209.69A1,1,0,0,1,177.41,208.69Z"/><path d="M208.5,217v12.13a1,1,0,0,1-1,1h-4.42a1,1,0,0,1-1-1V217.89a3.53,3.53,0,0,0-3.72-3.9c-2.36,0-4,1.37-4,4.41v10.68a1,1,0,0,1-1,1H189a1,1,0,0,1-1-1V209.69a1,1,0,0,1,1-1h4.42a1,1,0,0,1,1,1v1c1.15-1.58,3.29-2.61,6.12-2.61C204.82,208.09,208.5,211.17,208.5,217Z"/><path d="M224.19,225a5.88,5.88,0,0,0,3.63-1.18,1,1,0,0,1,1.11-.09l3.48,2a1,1,0,0,1,.25,1.56,11.07,11.07,0,0,1-8.55,3.44c-7.32,0-11.85-4.92-11.85-11.3a11,11,0,0,1,11.38-11.29c6.24,0,10.87,4.83,10.87,11.29a12.89,12.89,0,0,1-.11,1.67,1,1,0,0,1-1,.9H220.88a1,1,0,0,0-.71,1.71A5.75,5.75,0,0,0,224.19,225Zm2.39-7.79a1,1,0,0,0,.82-1.58,4.48,4.48,0,0,0-3.8-1.8,4.57,4.57,0,0,0-3.93,1.78,1,1,0,0,0,.81,1.6Z"/><path class="cls-1" d="M205,54.81a13.66,13.66,0,0,1-.36,19.65A13.84,13.84,0,0,1,186,74.4a13.64,13.64,0,0,0,.3-19.59l-11-11.05a6.66,6.66,0,0,1,0-9.42l11-11a13.66,13.66,0,0,0,0-19.31L186,3.7a13.65,13.65,0,0,1,19,19.6l-11,11a6.66,6.66,0,0,0,0,9.42Z"/><path class="cls-2" d="M186.27,54.81A13.64,13.64,0,0,1,186,74.4l-.57-.52L161.52,50a15.48,15.48,0,0,1,0-21.9l8.36-8.36L185.64,4c.09-.1.21-.19.31-.29l.32.29a13.66,13.66,0,0,1,0,19.31l-11,11a6.66,6.66,0,0,0,0,9.42Z"/><path class="cls-3" d="M186,74.4l-.06.06a13.86,13.86,0,0,1-19.18-.58L142.85,50a15.48,15.48,0,0,1,0-21.9l8.35-8.36h0L167,4a13.65,13.65,0,0,1,19-.29c-.1.1-.22.19-.31.29L169.88,19.74l-8.36,8.36a15.48,15.48,0,0,0,0,21.9L185.4,73.88Z"/></g></g></svg>