<svg xmlns="http://www.w3.org/2000/svg" viewBox="0 0 486.74 150.6"><defs><style>.cls-1{fill:#fff;}.cls-2{fill:#78f6ff;}.cls-3{fill:#ff208e;}</style></defs><g id="Layer_2" data-name="Layer 2"><g id="Layer_1-2" data-name="Layer 1"><path class="cls-1" d="M172.59,70.1a1,1,0,0,1,0-1.19l18.7-25.69a1,1,0,0,0-.81-1.58h-17a1,1,0,0,0-.82.43L158,63.39a1,1,0,0,1-1.83-.57V20.34a1,1,0,0,0-1-1H140.48a1,1,0,0,0-1,1v76a1,1,0,0,0,1,1H155.2a1,1,0,0,0,1-1V75.82a1,1,0,0,1,1.81-.58L173.74,97a1,1,0,0,0,.81.42H191a1,1,0,0,0,.8-1.6Z"/><path class="cls-1" d="M231.54,40.55c-5.35.26-10.8,2.59-13.87,7.13a1,1,0,0,1-1.83-.55V42.64a1,1,0,0,0-1-1H200.12a1,1,0,0,0-1,1V96.38a1,1,0,0,0,1,1h14.72a1,1,0,0,0,1-1V72.18c0-10.47,8.84-13.52,15.64-12.85a1,1,0,0,0,1.09-1V41.55A1,1,0,0,0,231.54,40.55Z"/><path class="cls-1" d="M265.56,40.07c-17.61,0-29.65,12.83-29.65,29.44s11.82,29.43,30.88,29.43c10.16,0,18.16-3.59,23.62-10.58a1,1,0,0,0-.3-1.47L278.4,80.15a1,1,0,0,0-1.19.13A14.86,14.86,0,0,1,267,84c-5.59,0-10.35-1.67-12.75-6.36a1,1,0,0,1,.91-1.45h37.21a1,1,0,0,0,1-.81,32.8,32.8,0,0,0,.51-5.87C293.88,52.67,281.84,40.07,265.56,40.07Zm10.32,23.64H254.69a1,1,0,0,1-.94-1.36c1.83-4.82,5.88-7.45,11.7-7.45,4.65,0,9.3,2,11.37,7.44A1,1,0,0,1,275.88,63.71Z"/><path class="cls-1" d="M333.35,41.64h-9.49a1,1,0,0,1-1-1V27.37a1,1,0,0,0-1.28-1l-14.72,4.42a1,1,0,0,0-.72,1v8.85a1,1,0,0,1-1,1h-6.91a1,1,0,0,0-1,1v14a1,1,0,0,0,1,1h6.91a1,1,0,0,1,1,1V77.42c0,15.39,6.18,22,27.29,20a1,1,0,0,0,.92-1V83.27a1,1,0,0,0-1.06-1c-6.69.34-10.43-.29-10.43-4.85V58.69a1,1,0,0,1,1-1h9.49a1,1,0,0,0,1-1v-14A1,1,0,0,0,333.35,41.64Z"/><path class="cls-1" d="M369.57,40.07c-17.61,0-29.65,12.83-29.65,29.44s11.82,29.43,30.88,29.43c10.16,0,18.16-3.59,23.62-10.58a1,1,0,0,0-.3-1.47l-11.71-6.74a1,1,0,0,0-1.19.13A14.86,14.86,0,0,1,371,84c-5.59,0-10.35-1.67-12.75-6.36a1,1,0,0,1,.91-1.45h37.21a1,1,0,0,0,1-.81,32.8,32.8,0,0,0,.51-5.87C397.89,52.67,385.85,40.07,369.57,40.07Zm10.32,23.64H358.7a1,1,0,0,1-.94-1.36c1.83-4.82,5.88-7.45,11.7-7.45,4.65,0,9.3,2,11.37,7.44A1,1,0,0,1,379.89,63.71Z"/><path class="cls-1" d="M360.6,34.39h13.86a1,1,0,0,0,.77-.36L386.5,20.42a1,1,0,0,0-.77-1.64H368.37a1,1,0,0,0-.87.51l-7.77,13.6A1,1,0,0,0,360.6,34.39Z"/><path class="cls-1" d="M438,40.07c-6.15,0-11,1.87-14.25,4.9a1,1,0,0,1-1.69-.72V42.64a1,1,0,0,0-1-1H406.36a1,1,0,0,0-1,1V96.38a1,1,0,0,0,1,1h14.72a1,1,0,0,0,1-1V66.94c0-7.91,4.24-11.48,10.37-11.48,5.35,0,9.7,3.23,9.7,10.14V96.38a1,1,0,0,0,1,1h14.72a1,1,0,0,0,1-1V63.15C458.87,48.1,449.28,40.07,438,40.07Z"/><rect class="cls-1" x="468.35" y="41.64" width="16.72" height="55.74" rx="1"/><path class="cls-1" d="M469.58,34c10.26,8.33,22.77-4.18,14.44-14.43l-.18-.18C473.58,11,461.05,23.57,469.4,33.83Z"/><path class="cls-1" d="M376.32,128a11.3,11.3,0,1,0,11.34,11.3A11.22,11.22,0,0,0,376.32,128Zm0,16.34a5,5,0,1,1,4.92-5A4.8,4.8,0,0,1,376.32,144.35Z"/><path class="cls-1" d="M404.26,128c-2.83,0-5,1-6.12,2.61v-1a1,1,0,0,0-1-1h-4.42a1,1,0,0,0-1,1V149a1,1,0,0,0,1,1h4.42a1,1,0,0,0,1-1V138.32c0-3,1.63-4.41,4-4.41a3.53,3.53,0,0,1,3.72,3.9V149a1,1,0,0,0,1,1h4.42a1,1,0,0,0,1-1V136.87C412.26,131.09,408.58,128,404.26,128Z"/><rect class="cls-1" x="417.09" y="118.77" width="6.42" height="31.23" rx="1"/><path class="cls-1" d="M434.51,120a3.91,3.91,0,0,0-5.53,5.52l.2.2a3.91,3.91,0,0,0,5.53-5.51A1,1,0,0,0,434.51,120Z"/><rect class="cls-1" x="428.64" y="128.61" width="6.42" height="21.39" rx="1"/><path class="cls-1" d="M452.73,128c-2.83,0-5,1-6.12,2.61v-1a1,1,0,0,0-1-1h-4.42a1,1,0,0,0-1,1V149a1,1,0,0,0,1,1h4.42a1,1,0,0,0,1-1V138.32c0-3,1.62-4.41,4-4.41a3.53,3.53,0,0,1,3.72,3.9V149a1,1,0,0,0,1,1h4.42a1,1,0,0,0,1-1V136.87C460.73,131.09,457.05,128,452.73,128Z"/><path class="cls-1" d="M475.87,128a11,11,0,0,0-11.38,11.3c0,6.37,4.54,11.29,11.85,11.29a11.07,11.07,0,0,0,8.55-3.44,1,1,0,0,0-.24-1.55l-3.48-2a1,1,0,0,0-1.12.08,5.85,5.85,0,0,1-3.62,1.18,5.76,5.76,0,0,1-4-1.29,1,1,0,0,1,.71-1.71h12.53a1,1,0,0,0,1-.9,12.86,12.86,0,0,0,.11-1.66C486.74,132.84,482.12,128,475.87,128Zm2.94,9.07h-6.09a1,1,0,0,1-.81-1.6,4.54,4.54,0,0,1,3.92-1.78,4.48,4.48,0,0,1,3.8,1.8A1,1,0,0,1,478.81,137.08Z"/><path class="cls-2" d="M100,82.28a20.5,20.5,0,0,1-.54,29.51c-7.85,7.31-20,7-27.95-.1A20.48,20.48,0,0,0,72,82.28L55.42,65.7a10,10,0,0,1,0-14.14L72,35A20.49,20.49,0,0,0,72,6c-.15-.15-.32-.28-.47-.43A20.49,20.49,0,0,1,100,35L83.45,51.56a10,10,0,0,0,0,14.14Z"/><path class="cls-1" d="M72,82.28a20.48,20.48,0,0,1-.45,29.41c-.28-.25-.57-.5-.85-.77L34.84,75.07a23.25,23.25,0,0,1,0-32.88L47.39,29.64,71,6c.15-.15.32-.28.48-.43.15.15.32.28.47.43a20.49,20.49,0,0,1,0,29L55.42,51.56a10,10,0,0,0,0,14.14Z"/><path class="cls-3" d="M71.54,111.69a.81.81,0,0,1-.09.1c-8.13,7.57-20.93,7-28.79-.87L6.8,75.07a23.27,23.27,0,0,1,0-32.88L19.35,29.64h0L43,6a20.5,20.5,0,0,1,28.52-.43c-.16.15-.33.28-.48.43L47.39,29.64,34.84,42.19a23.25,23.25,0,0,0,0,32.88l35.85,35.85C71,111.19,71.26,111.44,71.54,111.69Z"/></g></g></svg>