<svg xmlns="http://www.w3.org/2000/svg" viewBox="0 0 106.04 117.16"><defs><style>.cls-1{fill:#78f6ff;}.cls-2{fill:#fff;}.cls-3{fill:#ff208e;}</style></defs><g id="Layer_2" data-name="Layer 2"><g id="Layer_1-2" data-name="Layer 1"><path class="cls-1" d="M100,82.28a20.5,20.5,0,0,1-.54,29.51c-7.85,7.31-20,7-27.95-.1A20.48,20.48,0,0,0,72,82.28L55.42,65.7a10,10,0,0,1,0-14.14L72,35A20.49,20.49,0,0,0,72,6c-.15-.15-.32-.28-.47-.43A20.49,20.49,0,0,1,100,35L83.45,51.56a10,10,0,0,0,0,14.14Z"/><path class="cls-2" d="M72,82.28a20.48,20.48,0,0,1-.45,29.41c-.28-.25-.57-.5-.85-.77L34.84,75.07a23.25,23.25,0,0,1,0-32.88L47.39,29.64,71,6c.15-.15.32-.28.48-.43.15.15.32.28.47.43a20.49,20.49,0,0,1,0,29L55.42,51.56a10,10,0,0,0,0,14.14Z"/><path class="cls-3" d="M71.54,111.69a.81.81,0,0,1-.09.1c-8.13,7.57-20.93,7-28.79-.87L6.8,75.07a23.27,23.27,0,0,1,0-32.88L19.35,29.64h0L43,6a20.5,20.5,0,0,1,28.52-.43c-.16.15-.33.28-.48.43L47.39,29.64,34.84,42.19a23.25,23.25,0,0,0,0,32.88l35.85,35.85C71,111.19,71.26,111.44,71.54,111.69Z"/></g></g></svg>